ISO-10303-21;
HEADER;
FILE_DESCRIPTION(('Open CASCADE Model'),'2;1');
FILE_NAME('Open CASCADE Shape Model','2026-06-10T08:44:49',('Author'),(
    'Open CASCADE'),'Open CASCADE STEP processor 7.8','Open CASCADE 7.8'
  ,'Unknown');
FILE_SCHEMA(('AUTOMOTIVE_DESIGN { 1 0 10303 214 1 1 1 1 }'));
ENDSEC;
DATA;
#1 = APPLICATION_PROTOCOL_DEFINITION('international standard',
  'automotive_design',2000,#2);
#2 = APPLICATION_CONTEXT(
  'core data for automotive mechanical design processes');
#3 = SHAPE_DEFINITION_REPRESENTATION(#4,#10);
#4 = PRODUCT_DEFINITION_SHAPE('','',#5);
#5 = PRODUCT_DEFINITION('design','',#6,#9);
#6 = PRODUCT_DEFINITION_FORMATION('','',#7);
#7 = PRODUCT('Open CASCADE STEP translator 7.8 59',
  'Open CASCADE STEP translator 7.8 59','',(#8));
#8 = PRODUCT_CONTEXT('',#2,'mechanical');
#9 = PRODUCT_DEFINITION_CONTEXT('part definition',#2,'design');
#10 = ADVANCED_BREP_SHAPE_REPRESENTATION('',(#11,#15),#215);
#11 = AXIS2_PLACEMENT_3D('',#12,#13,#14);
#12 = CARTESIAN_POINT('',(0.,0.,0.));
#13 = DIRECTION('',(0.,0.,1.));
#14 = DIRECTION('',(1.,0.,-0.));
#15 = MANIFOLD_SOLID_BREP('',#16);
#16 = CLOSED_SHELL('',(#17,#207,#211));
#17 = ADVANCED_FACE('',(#18),#41,.T.);
#18 = FACE_BOUND('',#19,.T.);
#19 = EDGE_LOOP('',(#20,#138,#172,#173));
#20 = ORIENTED_EDGE('',*,*,#21,.T.);
#21 = EDGE_CURVE('',#22,#24,#26,.T.);
#22 = VERTEX_POINT('',#23);
#23 = CARTESIAN_POINT('',(7.2,-8.743006318923E-16,-7.105427357601E-15));
#24 = VERTEX_POINT('',#25);
#25 = CARTESIAN_POINT('',(10.650742714055,-1.929012505286E-15,
    74.098526279051));
#26 = SEAM_CURVE('',#27,(#40,#131),.PCURVE_S1.);
#27 = ( BOUNDED_CURVE() B_SPLINE_CURVE(11,(#28,#29,#30,#31,#32,#33,#34,
    #35,#36,#37,#38,#39),.UNSPECIFIED.,.F.,.F.) 
B_SPLINE_CURVE_WITH_KNOTS((12,12),(0.,75.27419578752),
.PIECEWISE_BEZIER_KNOTS.) CURVE() GEOMETRIC_REPRESENTATION_ITEM() 
RATIONAL_B_SPLINE_CURVE((1.669078461068,1.669078461068,1.669078461069,
    1.669078461067,1.66907846107,1.669078461067,1.66907846107,
    1.669078461067,1.669078461069,1.669078461068,1.669078461068,
1.669078461068)) REPRESENTATION_ITEM('') );
#28 = CARTESIAN_POINT('',(7.2,-8.743006318923E-16,-7.105427357601E-15));
#29 = CARTESIAN_POINT('',(8.625013305785,-1.609823385706E-15,
    7.60147878583));
#30 = CARTESIAN_POINT('',(9.1154907511,1.609823385706E-15,
    15.079665888065));
#31 = CARTESIAN_POINT('',(8.932073313475,-6.550315845288E-15,
    22.370606609632));
#32 = CARTESIAN_POINT('',(8.357696235957,4.19109191796E-15,
    29.458127668317));
#33 = CARTESIAN_POINT('',(7.62159740064,4.413136522885E-15,
    36.396097947255));
#34 = CARTESIAN_POINT('',(6.9402119116,-1.507127755929E-14,
    43.15599996205));
#35 = CARTESIAN_POINT('',(6.493468346085,3.469446951954E-15,
    49.756012381587));
#36 = CARTESIAN_POINT('',(6.518147531515,7.910339050454E-16,
    56.15532547431));
#37 = CARTESIAN_POINT('',(7.126814380706,-5.190292640123E-15,
    62.298432422197));
#38 = CARTESIAN_POINT('',(8.444542742286,-1.01307850997E-15,
    68.249247131645));
#39 = CARTESIAN_POINT('',(10.650742714055,-1.929012505286E-15,
    74.098526279051));
#40 = PCURVE('',#41,#126);
#41 = ( BOUNDED_SURFACE() B_SPLINE_SURFACE(6,11,(
    (#42,#43,#44,#45,#46,#47,#48,#49,#50,#51,#52,#53)
    ,(#54,#55,#56,#57,#58,#59,#60,#61,#62,#63,#64,#65)
    ,(#66,#67,#68,#69,#70,#71,#72,#73,#74,#75,#76,#77)
    ,(#78,#79,#80,#81,#82,#83,#84,#85,#86,#87,#88,#89)
    ,(#90,#91,#92,#93,#94,#95,#96,#97,#98,#99,#100,#101)
    ,(#102,#103,#104,#105,#106,#107,#108,#109,#110,#111,#112,#113)
    ,(#114,#115,#116,#117,#118,#119,#120,#121,#122,#123,#124,#125
)),.UNSPECIFIED.,.T.,.F.,.F.) B_SPLINE_SURFACE_WITH_KNOTS((1,6,6,1),(12,
    12),(-6.28318530718,0.,6.28318530718,12.566370614359),(0.,
75.27419578752),.UNSPECIFIED.) GEOMETRIC_REPRESENTATION_ITEM() 
RATIONAL_B_SPLINE_SURFACE((
    (1.669078461068,1.669078461068,1.669078461069,1.669078461067
      ,1.66907846107,1.669078461067,1.66907846107,1.669078461067
      ,1.669078461069,1.669078461068,1.669078461068,1.669078461068)
    ,(1.03672962321,1.03672962321,1.03672962321,1.036729623209
      ,1.03672962321,1.03672962321,1.03672962321,1.03672962321
      ,1.03672962321,1.03672962321,1.03672962321,1.03672962321)
    ,(1.038346699848,1.038346699847,1.038346699848,1.038346699847
      ,1.038346699847,1.038346699848,1.038346699847,1.038346699848
      ,1.038346699847,1.038346699848,1.038346699848,1.038346699848)
    ,(0.853534330196,0.853534330196,0.853534330196,0.853534330196
      ,0.853534330197,0.853534330196,0.853534330197,0.853534330196
      ,0.853534330196,0.853534330196,0.853534330196,0.853534330196)
    ,(1.038346699848,1.038346699847,1.038346699848,1.038346699847
      ,1.038346699848,1.038346699847,1.038346699848,1.038346699847
      ,1.038346699848,1.038346699847,1.038346699848,1.038346699848)
    ,(1.03672962321,1.03672962321,1.03672962321,1.036729623209
      ,1.03672962321,1.036729623209,1.03672962321,1.036729623209
      ,1.03672962321,1.03672962321,1.03672962321,1.03672962321)
    ,(1.669078461068,1.669078461068,1.669078461069,1.669078461067
      ,1.66907846107,1.669078461067,1.66907846107,1.669078461067
      ,1.669078461069,1.669078461068,1.669078461068,1.669078461068
))) REPRESENTATION_ITEM('') SURFACE() );
#42 = CARTESIAN_POINT('',(7.2,-8.743006318923E-16,-7.105427357601E-15));
#43 = CARTESIAN_POINT('',(8.625013305785,-1.609823385706E-15,
    7.60147878583));
#44 = CARTESIAN_POINT('',(9.1154907511,1.609823385706E-15,
    15.079665888065));
#45 = CARTESIAN_POINT('',(8.932073313475,-6.550315845288E-15,
    22.370606609632));
#46 = CARTESIAN_POINT('',(8.357696235957,4.19109191796E-15,
    29.458127668317));
#47 = CARTESIAN_POINT('',(7.62159740064,4.413136522885E-15,
    36.396097947255));
#48 = CARTESIAN_POINT('',(6.9402119116,-1.507127755929E-14,
    43.15599996205));
#49 = CARTESIAN_POINT('',(6.493468346085,3.469446951954E-15,
    49.756012381587));
#50 = CARTESIAN_POINT('',(6.518147531515,7.910339050454E-16,
    56.15532547431));
#51 = CARTESIAN_POINT('',(7.126814380706,-5.190292640123E-15,
    62.298432422197));
#52 = CARTESIAN_POINT('',(8.444542742286,-1.01307850997E-15,
    68.249247131645));
#53 = CARTESIAN_POINT('',(10.650742714055,-1.929012505286E-15,
    74.098526279051));
#54 = CARTESIAN_POINT('',(7.2,11.963110144112,-7.105427357601E-15));
#55 = CARTESIAN_POINT('',(8.625013305785,11.963110144111,7.601478785831)
  );
#56 = CARTESIAN_POINT('',(9.115490751101,11.963110144112,15.079665888062
    ));
#57 = CARTESIAN_POINT('',(8.932073313473,11.96311014411,22.370606609637)
  );
#58 = CARTESIAN_POINT('',(8.35769623596,11.963110144115,29.458127668313)
  );
#59 = CARTESIAN_POINT('',(7.621597400638,11.963110144108,36.396097947254
    ));
#60 = CARTESIAN_POINT('',(6.940211911602,11.963110144115,43.155999962057
    ));
#61 = CARTESIAN_POINT('',(6.493468346084,11.963110144109,49.756012381577
    ));
#62 = CARTESIAN_POINT('',(6.518147531515,11.963110144113,56.155325474318
    ));
#63 = CARTESIAN_POINT('',(7.126814380706,11.963110144111,62.298432422193
    ));
#64 = CARTESIAN_POINT('',(8.444542742286,11.963110144112,68.249247131646
    ));
#65 = CARTESIAN_POINT('',(10.650742714055,11.963110144112,
    74.098526279051));
#66 = CARTESIAN_POINT('',(-7.592746971947,13.680809159368,
    7.105427357601E-15));
#67 = CARTESIAN_POINT('',(-6.167733666161,13.680809159368,6.005700767594
    ));
#68 = CARTESIAN_POINT('',(-5.487895973074,13.68080915937,12.168851203188
    ));
#69 = CARTESIAN_POINT('',(-5.402706558093,13.680809159366,
    18.546847511517));
#70 = CARTESIAN_POINT('',(-5.785148464018,13.680809159372,25.14669809272
    ));
#71 = CARTESIAN_POINT('',(-6.451578278763,13.680809159364,
    31.901548508282));
#72 = CARTESIAN_POINT('',(-7.204851443925,13.680809159372,
    38.831424714321));
#73 = CARTESIAN_POINT('',(-7.80932550921,13.680809159366,45.90710932327)
  );
#74 = CARTESIAN_POINT('',(-8.089311461939,13.68080915937,53.161591058208
    ));
#75 = CARTESIAN_POINT('',(-7.738128621408,13.680809159368,
    60.643357428423));
#76 = CARTESIAN_POINT('',(-6.462287582559,13.680809159368,
    68.274961034165));
#77 = CARTESIAN_POINT('',(-4.025599133572,13.680809159368,
    75.950647481253));
#78 = CARTESIAN_POINT('',(-19.79364183126,2.489675132722E-14,
    7.105427357601E-15));
#79 = CARTESIAN_POINT('',(-18.36862852547,2.45081732686E-14,
    4.68952062497));
#80 = CARTESIAN_POINT('',(-17.53260858456,2.657596365196E-14,
    9.768043294259));
#81 = CARTESIAN_POINT('',(-17.22587519445,2.099709295322E-14,
    15.393053100508));
#82 = CARTESIAN_POINT('',(-17.45001108373,4.092559624524E-14,
    21.590678440333));
#83 = CARTESIAN_POINT('',(-18.05897865724,-2.435551760271E-14,
    28.19449360841));
#84 = CARTESIAN_POINT('',(-18.87154398631,9.665879208143E-14,
    35.264562656252));
#85 = CARTESIAN_POINT('',(-19.60611243146,-1.396105453466E-14,
    42.732576450702));
#86 = CARTESIAN_POINT('',(-20.1373828363,3.887168364969E-14,
    50.692391867754));
#87 = CARTESIAN_POINT('',(-19.99856997164,2.738087534482E-14,
    59.278269793143));
#88 = CARTESIAN_POINT('',(-18.75727713547,2.785272013028E-14,
    68.296169577895));
#89 = CARTESIAN_POINT('',(-16.13048432777,2.781108676686E-14,
    77.478256660105));
#90 = CARTESIAN_POINT('',(-7.592746971947,-13.68080915936,
    7.105427357601E-15));
#91 = CARTESIAN_POINT('',(-6.167733666162,-13.68080915936,6.005700767593
    ));
#92 = CARTESIAN_POINT('',(-5.487895973073,-13.68080915936,
    12.168851203191));
#93 = CARTESIAN_POINT('',(-5.402706558095,-13.68080915936,
    18.546847511512));
#94 = CARTESIAN_POINT('',(-5.785148464015,-13.68080915937,
    25.146698092727));
#95 = CARTESIAN_POINT('',(-6.451578278768,-13.68080915936,
    31.901548508278));
#96 = CARTESIAN_POINT('',(-7.20485144392,-13.68080915937,38.831424714323
    ));
#97 = CARTESIAN_POINT('',(-7.809325509213,-13.68080915936,
    45.907109323271));
#98 = CARTESIAN_POINT('',(-8.089311461938,-13.68080915936,
    53.161591058206));
#99 = CARTESIAN_POINT('',(-7.738128621409,-13.68080915936,
    60.643357428425));
#100 = CARTESIAN_POINT('',(-6.462287582559,-13.68080915936,
    68.274961034165));
#101 = CARTESIAN_POINT('',(-4.025599133572,-13.68080915936,
    75.950647481253));
#102 = CARTESIAN_POINT('',(7.2,-11.96311014411,-1.42108547152E-14));
#103 = CARTESIAN_POINT('',(8.625013305785,-11.96311014411,7.601478785831
    ));
#104 = CARTESIAN_POINT('',(9.115490751101,-11.96311014411,
    15.079665888063));
#105 = CARTESIAN_POINT('',(8.932073313473,-11.96311014411,
    22.370606609635));
#106 = CARTESIAN_POINT('',(8.357696235959,-11.96311014411,
    29.458127668314));
#107 = CARTESIAN_POINT('',(7.621597400638,-11.96311014411,
    36.396097947254));
#108 = CARTESIAN_POINT('',(6.940211911601,-11.96311014411,
    43.155999962056));
#109 = CARTESIAN_POINT('',(6.493468346085,-11.96311014411,
    49.756012381579));
#110 = CARTESIAN_POINT('',(6.518147531515,-11.96311014411,
    56.155325474315));
#111 = CARTESIAN_POINT('',(7.126814380706,-11.96311014411,
    62.298432422194));
#112 = CARTESIAN_POINT('',(8.444542742286,-11.96311014411,
    68.249247131646));
#113 = CARTESIAN_POINT('',(10.650742714055,-11.96311014411,
    74.098526279051));
#114 = CARTESIAN_POINT('',(7.2,-8.743006318923E-16,-7.105427357601E-15)
  );
#115 = CARTESIAN_POINT('',(8.625013305785,-1.609823385706E-15,
    7.60147878583));
#116 = CARTESIAN_POINT('',(9.1154907511,1.609823385706E-15,
    15.079665888065));
#117 = CARTESIAN_POINT('',(8.932073313475,-6.550315845288E-15,
    22.370606609632));
#118 = CARTESIAN_POINT('',(8.357696235957,4.19109191796E-15,
    29.458127668317));
#119 = CARTESIAN_POINT('',(7.62159740064,4.413136522885E-15,
    36.396097947255));
#120 = CARTESIAN_POINT('',(6.9402119116,-1.507127755929E-14,
    43.15599996205));
#121 = CARTESIAN_POINT('',(6.493468346085,3.469446951954E-15,
    49.756012381587));
#122 = CARTESIAN_POINT('',(6.518147531515,7.910339050454E-16,
    56.15532547431));
#123 = CARTESIAN_POINT('',(7.126814380706,-5.190292640123E-15,
    62.298432422197));
#124 = CARTESIAN_POINT('',(8.444542742286,-1.01307850997E-15,
    68.249247131645));
#125 = CARTESIAN_POINT('',(10.650742714055,-1.929012505286E-15,
    74.098526279051));
#126 = DEFINITIONAL_REPRESENTATION('',(#127),#130);
#127 = B_SPLINE_CURVE_WITH_KNOTS('',1,(#128,#129),.UNSPECIFIED.,.F.,.F.,
  (2,2),(0.,75.27419578752),.PIECEWISE_BEZIER_KNOTS.);
#128 = CARTESIAN_POINT('',(6.28318530718,0.));
#129 = CARTESIAN_POINT('',(6.28318530718,75.27419578752));
#130 = ( GEOMETRIC_REPRESENTATION_CONTEXT(2) 
PARAMETRIC_REPRESENTATION_CONTEXT() REPRESENTATION_CONTEXT('2D SPACE',''
  ) );
#131 = PCURVE('',#41,#132);
#132 = DEFINITIONAL_REPRESENTATION('',(#133),#137);
#133 = LINE('',#134,#135);
#134 = CARTESIAN_POINT('',(0.,0.));
#135 = VECTOR('',#136,1.);
#136 = DIRECTION('',(0.,1.));
#137 = ( GEOMETRIC_REPRESENTATION_CONTEXT(2) 
PARAMETRIC_REPRESENTATION_CONTEXT() REPRESENTATION_CONTEXT('2D SPACE',''
  ) );
#138 = ORIENTED_EDGE('',*,*,#139,.F.);
#139 = EDGE_CURVE('',#24,#24,#140,.T.);
#140 = SURFACE_CURVE('',#141,(#149,#156),.PCURVE_S1.);
#141 = ( BOUNDED_CURVE() B_SPLINE_CURVE(6,(#142,#143,#144,#145,#146,#147
,#148),.UNSPECIFIED.,.T.,.F.) B_SPLINE_CURVE_WITH_KNOTS((1,6,6,1),(
    -6.28318530718,0.,6.28318530718,12.566370614359),.UNSPECIFIED.) 
CURVE() GEOMETRIC_REPRESENTATION_ITEM() RATIONAL_B_SPLINE_CURVE((
    1.669078461068,1.03672962321,1.038346699848,0.853534330196,
1.038346699848,1.03672962321,1.669078461068)) REPRESENTATION_ITEM('') );
#142 = CARTESIAN_POINT('',(10.650742714055,-1.929012505286E-15,
    74.098526279051));
#143 = CARTESIAN_POINT('',(10.650742714055,11.963110144112,
    74.098526279051));
#144 = CARTESIAN_POINT('',(-4.025599133572,13.680809159368,
    75.950647481253));
#145 = CARTESIAN_POINT('',(-16.13048432777,2.781108676686E-14,
    77.478256660105));
#146 = CARTESIAN_POINT('',(-4.025599133572,-13.68080915936,
    75.950647481253));
#147 = CARTESIAN_POINT('',(10.650742714055,-11.96311014411,
    74.098526279051));
#148 = CARTESIAN_POINT('',(10.650742714055,-1.929012505286E-15,
    74.098526279051));
#149 = PCURVE('',#41,#150);
#150 = DEFINITIONAL_REPRESENTATION('',(#151),#155);
#151 = LINE('',#152,#153);
#152 = CARTESIAN_POINT('',(0.,75.27419578752));
#153 = VECTOR('',#154,1.);
#154 = DIRECTION('',(1.,0.));
#155 = ( GEOMETRIC_REPRESENTATION_CONTEXT(2) 
PARAMETRIC_REPRESENTATION_CONTEXT() REPRESENTATION_CONTEXT('2D SPACE',''
  ) );
#156 = PCURVE('',#157,#162);
#157 = PLANE('',#158);
#158 = AXIS2_PLACEMENT_3D('',#159,#160,#161);
#159 = CARTESIAN_POINT('',(3.508531671461,-8.183710820486E-16,
    74.999857185617));
#160 = DIRECTION('',(0.125204683465,-8.389222361718E-15,0.992130932508)
  );
#161 = DIRECTION('',(0.992130932508,1.972152263053E-31,-0.125204683465)
  );
#162 = DEFINITIONAL_REPRESENTATION('',(#163),#171);
#163 = ( BOUNDED_CURVE() B_SPLINE_CURVE(6,(#164,#165,#166,#167,#168,#169
,#170),.UNSPECIFIED.,.T.,.F.) B_SPLINE_CURVE_WITH_KNOTS((1,6,6,1),(
    -6.28318530718,0.,6.28318530718,12.566370614359),.UNSPECIFIED.) 
CURVE() GEOMETRIC_REPRESENTATION_ITEM() RATIONAL_B_SPLINE_CURVE((
    1.669078461068,1.03672962321,1.038346699848,0.853534330196,
1.038346699848,1.03672962321,1.669078461068)) REPRESENTATION_ITEM('') );
#164 = CARTESIAN_POINT('',(7.198859352709,-1.110641423237E-15));
#165 = CARTESIAN_POINT('',(7.198859352709,11.963110144112));
#166 = CARTESIAN_POINT('',(-7.593887619238,13.680809159368));
#167 = CARTESIAN_POINT('',(-19.79478247855,2.862945784891E-14));
#168 = CARTESIAN_POINT('',(-7.593887619238,-13.68080915936));
#169 = CARTESIAN_POINT('',(7.198859352709,-11.96311014411));
#170 = CARTESIAN_POINT('',(7.198859352709,-1.110641423237E-15));
#171 = ( GEOMETRIC_REPRESENTATION_CONTEXT(2) 
PARAMETRIC_REPRESENTATION_CONTEXT() REPRESENTATION_CONTEXT('2D SPACE',''
  ) );
#172 = ORIENTED_EDGE('',*,*,#21,.F.);
#173 = ORIENTED_EDGE('',*,*,#174,.T.);
#174 = EDGE_CURVE('',#22,#22,#175,.T.);
#175 = SURFACE_CURVE('',#176,(#184,#191),.PCURVE_S1.);
#176 = ( BOUNDED_CURVE() B_SPLINE_CURVE(6,(#177,#178,#179,#180,#181,#182
,#183),.UNSPECIFIED.,.T.,.F.) B_SPLINE_CURVE_WITH_KNOTS((1,6,6,1),(
    -6.28318530718,0.,6.28318530718,12.566370614359),.UNSPECIFIED.) 
CURVE() GEOMETRIC_REPRESENTATION_ITEM() RATIONAL_B_SPLINE_CURVE((
    1.669078461068,1.03672962321,1.038346699848,0.853534330196,
1.038346699848,1.03672962321,1.669078461068)) REPRESENTATION_ITEM('') );
#177 = CARTESIAN_POINT('',(7.2,-8.743006318923E-16,-7.105427357601E-15)
  );
#178 = CARTESIAN_POINT('',(7.2,11.963110144112,-7.105427357601E-15));
#179 = CARTESIAN_POINT('',(-7.592746971947,13.680809159368,
    7.105427357601E-15));
#180 = CARTESIAN_POINT('',(-19.79364183126,2.489675132722E-14,
    7.105427357601E-15));
#181 = CARTESIAN_POINT('',(-7.592746971947,-13.68080915936,
    7.105427357601E-15));
#182 = CARTESIAN_POINT('',(7.2,-11.96311014411,-1.42108547152E-14));
#183 = CARTESIAN_POINT('',(7.2,-8.743006318923E-16,-7.105427357601E-15)
  );
#184 = PCURVE('',#41,#185);
#185 = DEFINITIONAL_REPRESENTATION('',(#186),#190);
#186 = LINE('',#187,#188);
#187 = CARTESIAN_POINT('',(0.,0.));
#188 = VECTOR('',#189,1.);
#189 = DIRECTION('',(1.,0.));
#190 = ( GEOMETRIC_REPRESENTATION_CONTEXT(2) 
PARAMETRIC_REPRESENTATION_CONTEXT() REPRESENTATION_CONTEXT('2D SPACE',''
  ) );
#191 = PCURVE('',#192,#197);
#192 = PLANE('',#193);
#193 = AXIS2_PLACEMENT_3D('',#194,#195,#196);
#194 = CARTESIAN_POINT('',(1.140647291042E-03,3.710256563413E-15,
    -2.390707477733E-15));
#195 = DIRECTION('',(7.178307079131E-16,0.,1.));
#196 = DIRECTION('',(1.,0.,-7.178307079131E-16));
#197 = DEFINITIONAL_REPRESENTATION('',(#198),#206);
#198 = ( BOUNDED_CURVE() B_SPLINE_CURVE(6,(#199,#200,#201,#202,#203,#204
,#205),.UNSPECIFIED.,.T.,.F.) B_SPLINE_CURVE_WITH_KNOTS((1,6,6,1),(
    -6.28318530718,0.,6.28318530718,12.566370614359),.UNSPECIFIED.) 
CURVE() GEOMETRIC_REPRESENTATION_ITEM() RATIONAL_B_SPLINE_CURVE((
    1.669078461068,1.03672962321,1.038346699848,0.853534330196,
1.038346699848,1.03672962321,1.669078461068)) REPRESENTATION_ITEM('') );
#199 = CARTESIAN_POINT('',(7.198859352709,-4.584557195305E-15));
#200 = CARTESIAN_POINT('',(7.198859352709,11.963110144112));
#201 = CARTESIAN_POINT('',(-7.593887619238,13.680809159368));
#202 = CARTESIAN_POINT('',(-19.79478247855,2.118649476381E-14));
#203 = CARTESIAN_POINT('',(-7.593887619238,-13.68080915936));
#204 = CARTESIAN_POINT('',(7.198859352709,-11.96311014411));
#205 = CARTESIAN_POINT('',(7.198859352709,-4.584557195305E-15));
#206 = ( GEOMETRIC_REPRESENTATION_CONTEXT(2) 
PARAMETRIC_REPRESENTATION_CONTEXT() REPRESENTATION_CONTEXT('2D SPACE',''
  ) );
#207 = ADVANCED_FACE('',(#208),#192,.F.);
#208 = FACE_BOUND('',#209,.F.);
#209 = EDGE_LOOP('',(#210));
#210 = ORIENTED_EDGE('',*,*,#174,.T.);
#211 = ADVANCED_FACE('',(#212),#157,.T.);
#212 = FACE_BOUND('',#213,.T.);
#213 = EDGE_LOOP('',(#214));
#214 = ORIENTED_EDGE('',*,*,#139,.T.);
#215 = ( GEOMETRIC_REPRESENTATION_CONTEXT(3) 
GLOBAL_UNCERTAINTY_ASSIGNED_CONTEXT((#219)) GLOBAL_UNIT_ASSIGNED_CONTEXT
((#216,#217,#218)) REPRESENTATION_CONTEXT('Context #1',
  '3D Context with UNIT and UNCERTAINTY') );
#216 = ( LENGTH_UNIT() NAMED_UNIT(*) SI_UNIT(.MILLI.,.METRE.) );
#217 = ( NAMED_UNIT(*) PLANE_ANGLE_UNIT() SI_UNIT($,.RADIAN.) );
#218 = ( NAMED_UNIT(*) SI_UNIT($,.STERADIAN.) SOLID_ANGLE_UNIT() );
#219 = UNCERTAINTY_MEASURE_WITH_UNIT(LENGTH_MEASURE(2.E-05),#216,
  'distance_accuracy_value','confusion accuracy');
#220 = PRODUCT_RELATED_PRODUCT_CATEGORY('part',$,(#7));
ENDSEC;
END-ISO-10303-21;
